<svg width="40" height="40" viewBox="0 0 40 40" fill="none" xmlns="http://www.w3.org/2000/svg">
<path d="M5.835 19.32C5.72614 19.214 5.63962 19.0873 5.58054 18.9473C5.52147 18.8073 5.49103 18.6569 5.49103 18.505C5.49103 18.3531 5.52147 18.2027 5.58054 18.0627C5.63962 17.9227 5.72614 17.796 5.835 17.69C6.05812 17.4727 6.35728 17.3511 6.66875 17.3511C6.98022 17.3511 7.27938 17.4727 7.5025 17.69L19.9975 29.8725L32.495 17.69C32.6073 17.5803 32.74 17.4938 32.8857 17.4355C33.0314 17.3771 33.1872 17.3481 33.3441 17.3499C33.5011 17.3518 33.6561 17.3845 33.8004 17.4463C33.9447 17.5081 34.0754 17.5977 34.185 17.71C34.2895 17.817 34.3719 17.9435 34.4275 18.0823C34.4831 18.2212 34.5107 18.3696 34.5089 18.5192C34.507 18.6687 34.4757 18.8164 34.4167 18.9538C34.3577 19.0912 34.2722 19.2157 34.165 19.32L20.87 32.275C20.6366 32.5025 20.3235 32.6299 19.9975 32.6299C19.6715 32.6299 19.3584 32.5025 19.125 32.275L5.835 19.32ZM5.835 9.32C5.72614 9.21401 5.63962 9.08729 5.58054 8.94731C5.52147 8.80733 5.49103 8.65694 5.49103 8.505C5.49103 8.35307 5.52147 8.20267 5.58054 8.0627C5.63962 7.92272 5.72614 7.796 5.835 7.69C6.05812 7.47268 6.35728 7.35106 6.66875 7.35106C6.98022 7.35106 7.27938 7.47268 7.5025 7.69L19.9975 19.8725L32.495 7.69C32.6073 7.58033 32.74 7.49385 32.8857 7.4355C33.0314 7.37714 33.1872 7.34806 33.3441 7.34992C33.5011 7.35178 33.6561 7.38454 33.8004 7.44632C33.9447 7.5081 34.0754 7.5977 34.185 7.71C34.2895 7.81696 34.3719 7.94349 34.4275 8.08233C34.4831 8.22117 34.5107 8.36961 34.5089 8.51915C34.507 8.66869 34.4757 8.8164 34.4167 8.95382C34.3577 9.09124 34.2722 9.21567 34.165 9.32L20.87 22.275C20.6366 22.5025 20.3235 22.6299 19.9975 22.6299C19.6715 22.6299 19.3584 22.5025 19.125 22.275L5.835 9.32Z" fill="white"/>
</svg>
