<svg width="44" height="44" viewBox="0 0 44 44" fill="none" xmlns="http://www.w3.org/2000/svg">
<circle cx="22" cy="22" r="21.5" stroke="#333333"/>
<path d="M29.6375 13.3754C29.518 13.2557 29.3761 13.1607 29.2198 13.0958C29.0636 13.031 28.8961 12.9977 28.7269 12.9977C28.5578 12.9977 28.3902 13.031 28.234 13.0958C28.0777 13.1607 27.9358 13.2557 27.8163 13.3754L21.5 19.6787L15.1838 13.3625C15.0642 13.2429 14.9222 13.148 14.766 13.0833C14.6098 13.0186 14.4423 12.9853 14.2732 12.9853C14.1041 12.9853 13.9366 13.0186 13.7803 13.0833C13.6241 13.148 13.4821 13.2429 13.3625 13.3625C13.243 13.4821 13.1481 13.624 13.0834 13.7803C13.0187 13.9365 12.9854 14.104 12.9854 14.2731C12.9854 14.4422 13.0187 14.6097 13.0834 14.7659C13.1481 14.9222 13.243 15.0641 13.3625 15.1837L19.6788 21.5L13.3625 27.8162C13.243 27.9358 13.1481 28.0778 13.0834 28.234C13.0187 28.3903 12.9854 28.5577 12.9854 28.7269C12.9854 28.896 13.0187 29.0634 13.0834 29.2197C13.1481 29.3759 13.243 29.5179 13.3625 29.6375C13.4821 29.7571 13.6241 29.8519 13.7803 29.9166C13.9366 29.9814 14.1041 30.0147 14.2732 30.0147C14.4423 30.0147 14.6098 29.9814 14.766 29.9166C14.9222 29.8519 15.0642 29.7571 15.1838 29.6375L21.5 23.3212L27.8163 29.6375C27.9359 29.7571 28.0778 29.8519 28.2341 29.9166C28.3903 29.9814 28.5578 30.0147 28.7269 30.0147C28.896 30.0147 29.0635 29.9814 29.2197 29.9166C29.376 29.8519 29.518 29.7571 29.6375 29.6375C29.7571 29.5179 29.852 29.3759 29.9167 29.2197C29.9814 29.0634 30.0147 28.896 30.0147 28.7269C30.0147 28.5577 29.9814 28.3903 29.9167 28.234C29.852 28.0778 29.7571 27.9358 29.6375 27.8162L23.3213 21.5L29.6375 15.1837C30.1284 14.6929 30.1284 13.8662 29.6375 13.3754Z" fill="black"/>
</svg>
