<svg width="40" height="40" viewBox="0 0 40 40" fill="none" xmlns="http://www.w3.org/2000/svg">
<circle cx="20" cy="20" r="20" fill="#B06A36" fill-opacity="0.2"/>
<path d="M20 10.25C16.4555 10.25 14 12.785 14 15.875C14 17.351 14.636 18.3125 15.476 19.331L15.797 19.7105C16.1315 20.1065 16.502 20.5445 16.8065 20.9825C17.2325 21.599 17.612 22.3265 17.738 23.2175C17.768 23.5069 17.6847 23.7968 17.5056 24.0261C17.3265 24.2554 17.0655 24.4064 16.7774 24.4474C16.4893 24.4884 16.1965 24.4161 15.9606 24.2458C15.7246 24.0755 15.5638 23.8203 15.512 23.534C15.452 23.111 15.2675 22.7135 14.957 22.2635C14.7037 21.9098 14.4323 21.5693 14.144 21.2435C14.018 21.0935 13.8845 20.936 13.742 20.7635C12.8015 19.625 11.75 18.149 11.75 15.875C11.75 11.465 15.2945 8 20 8C24.7055 8 28.25 11.465 28.25 15.875C28.25 18.149 27.1985 19.625 26.258 20.7635C26.1155 20.936 25.982 21.0935 25.856 21.242C25.5455 21.6095 25.2815 21.9215 25.0445 22.2635C24.7325 22.7135 24.5495 23.111 24.4895 23.534C24.4342 23.8175 24.2721 24.0689 24.0367 24.2363C23.8013 24.4037 23.5106 24.4743 23.2246 24.4335C22.9387 24.3927 22.6793 24.2436 22.5002 24.017C22.321 23.7904 22.2358 23.5037 22.262 23.216C22.388 22.3265 22.7675 21.599 23.1935 20.9825C23.498 20.5445 23.8685 20.1065 24.203 19.7105C24.3155 19.5785 24.4235 19.451 24.5225 19.331C25.364 18.3125 26 17.351 26 15.875C26 12.785 23.5445 10.25 20 10.25ZM16.625 26H23.375C23.6734 26 23.9595 26.1185 24.1705 26.3295C24.3815 26.5405 24.5 26.8266 24.5 27.125C24.5 27.4234 24.3815 27.7095 24.1705 27.9205C23.9595 28.1315 23.6734 28.25 23.375 28.25H16.625C16.3266 28.25 16.0405 28.1315 15.8295 27.9205C15.6185 27.7095 15.5 27.4234 15.5 27.125C15.5 26.8266 15.6185 26.5405 15.8295 26.3295C16.0405 26.1185 16.3266 26 16.625 26ZM17 30.875C17 30.5766 17.1185 30.2905 17.3295 30.0795C17.5405 29.8685 17.8266 29.75 18.125 29.75H21.875C22.1734 29.75 22.4595 29.8685 22.6705 30.0795C22.8815 30.2905 23 30.5766 23 30.875C23 31.1734 22.8815 31.4595 22.6705 31.6705C22.4595 31.8815 22.1734 32 21.875 32H18.125C17.8266 32 17.5405 31.8815 17.3295 31.6705C17.1185 31.4595 17 31.1734 17 30.875Z" fill="#B06A36"/>
</svg>
