<svg width="40" height="40" viewBox="0 0 40 40" fill="none" xmlns="http://www.w3.org/2000/svg">
<path d="M36.25 11.25V28.75C36.25 29.413 35.9866 30.0489 35.5178 30.5178C35.0489 30.9866 34.413 31.25 33.75 31.25H6.25C5.58696 31.25 4.95107 30.9866 4.48223 30.5178C4.01339 30.0489 3.75 29.413 3.75 28.75V11.25M36.25 11.25C36.25 10.587 35.9866 9.95107 35.5178 9.48223C35.0489 9.01339 34.413 8.75 33.75 8.75H6.25C5.58696 8.75 4.95107 9.01339 4.48223 9.48223C4.01339 9.95107 3.75 10.587 3.75 11.25M36.25 11.25L21.4225 21.515C21.0045 21.8042 20.5083 21.9592 20 21.9592C19.4917 21.9592 18.9955 21.8042 18.5775 21.515L3.75 11.25" stroke="#FFC63E" stroke-width="2" stroke-linecap="round" stroke-linejoin="round"/>
</svg>
