<svg width="40" height="40" viewBox="0 0 40 40" fill="none" xmlns="http://www.w3.org/2000/svg">
<path d="M39.3375 13.8967L20.5875 3.89667C20.4067 3.80037 20.2049 3.75 20 3.75C19.7951 3.75 19.5934 3.80037 19.4125 3.89667L0.662506 13.8967C0.462513 14.0033 0.295257 14.1622 0.178631 14.3565C0.0620051 14.5508 0.000396729 14.7732 0.000396729 14.9998C0.000396729 15.2264 0.0620051 15.4488 0.178631 15.6431C0.295257 15.8374 0.462513 15.9963 0.662506 16.1029L5.00001 18.417V25.9826C4.99871 26.5966 5.22468 27.1894 5.63438 27.6467C7.68126 29.9264 12.2672 33.7498 20 33.7498C22.564 33.771 25.1088 33.3066 27.5 32.381V37.4998C27.5 37.8313 27.6317 38.1493 27.8661 38.3837C28.1005 38.6181 28.4185 38.7498 28.75 38.7498C29.0815 38.7498 29.3995 38.6181 29.6339 38.3837C29.8683 38.1493 30 37.8313 30 37.4998V31.1732C31.63 30.2323 33.103 29.0424 34.3656 27.6467C34.7753 27.1894 35.0013 26.5966 35 25.9826V18.417L39.3375 16.1029C39.5375 15.9963 39.7048 15.8374 39.8214 15.6431C39.938 15.4488 39.9996 15.2264 39.9996 14.9998C39.9996 14.7732 39.938 14.5508 39.8214 14.3565C39.7048 14.1622 39.5375 14.0033 39.3375 13.8967ZM20 31.2498C13.2391 31.2498 9.26251 27.9467 7.50001 25.9826V19.7498L19.4125 26.1029C19.5934 26.1992 19.7951 26.2496 20 26.2496C20.2049 26.2496 20.4067 26.1992 20.5875 26.1029L27.5 22.417V29.6576C25.5313 30.5764 23.05 31.2498 20 31.2498ZM32.5 25.9764C31.7507 26.8078 30.9123 27.5545 30 28.2029V21.0826L32.5 19.7498V25.9764ZM29.375 18.5842L29.3406 18.5639L20.5906 13.8967C20.2987 13.7476 19.9599 13.7191 19.6472 13.8174C19.3344 13.9157 19.0728 14.1329 18.9188 14.4223C18.7647 14.7116 18.7304 15.0499 18.8233 15.3643C18.9163 15.6786 19.129 15.9439 19.4156 16.1029L26.7188 19.9998L20 23.5826L3.90626 14.9998L20 6.41698L36.0938 14.9998L29.375 18.5842Z" fill="#B06A36"/>
</svg>
