<svg width="21" height="20" viewBox="0 0 21 20" fill="none" xmlns="http://www.w3.org/2000/svg">
<g clip-path="url(#clip0_78_18)">
<path d="M6.125 11.25H4.875V20H6.125C6.46875 20 6.75 19.7188 6.75 19.375V11.875C6.75 11.5312 6.46875 11.25 6.125 11.25ZM14.875 11.25C14.5312 11.25 14.25 11.5312 14.25 11.875V19.375C14.25 19.7188 14.5312 20 14.875 20H16.125V11.25H14.875Z" fill="#333333"/>
<path d="M20.5001 10C20.4991 8.54059 20.1787 7.09907 19.5613 5.77665C18.944 4.45423 18.0447 3.28296 16.9265 2.34507C15.8084 1.40718 14.4985 0.725405 13.0888 0.347601C11.6791 -0.0302039 10.2038 -0.0948778 8.76652 0.158119C7.32919 0.411117 5.96466 0.975652 4.76872 1.8121C3.57279 2.64854 2.57442 3.73661 1.84372 4.99994C1.11302 6.26326 0.667699 7.67121 0.539013 9.12495C0.410326 10.5787 0.601396 12.043 1.09881 13.415C0.73661 14.0339 0.532086 14.7323 0.503237 15.4488C0.474388 16.1653 0.622099 16.8779 0.933369 17.5239C1.24464 18.1699 1.70993 18.7295 2.28828 19.1534C2.86663 19.5774 3.54032 19.8526 4.25006 19.955V11.295C3.64046 11.3821 3.05632 11.5977 2.53631 11.9275C2.29822 10.748 2.32511 9.53027 2.61502 8.36239C2.90493 7.1945 3.45064 6.1056 4.21271 5.17434C4.97478 4.24307 5.93419 3.49271 7.02162 2.97745C8.10905 2.4622 9.29736 2.19491 10.5007 2.19491C11.704 2.19491 12.8923 2.4622 13.9798 2.97745C15.0672 3.49271 16.0266 4.24307 16.7887 5.17434C17.5507 6.1056 18.0964 7.1945 18.3864 8.36239C18.6763 9.53027 18.7031 10.748 18.4651 11.9275C17.9447 11.5973 17.3601 11.3813 16.7501 11.2938V19.955C17.4598 19.8526 18.1335 19.5774 18.7118 19.1534C19.2902 18.7295 19.7555 18.1699 20.0667 17.5239C20.378 16.8779 20.5257 16.1653 20.4969 15.4488C20.468 14.7323 20.2635 14.0339 19.9013 13.415C20.2888 12.3488 20.5001 11.1988 20.5001 10Z" fill="#333333"/>
</g>
<defs>
<clipPath id="clip0_78_18">
<rect width="20" height="20" fill="white" transform="translate(0.5)"/>
</clipPath>
</defs>
</svg>
