<svg width="40" height="40" viewBox="0 0 40 40" fill="none" xmlns="http://www.w3.org/2000/svg">
<circle cx="20" cy="20" r="20" fill="#B06A36" fill-opacity="0.2"/>
<path d="M20.65 10.24C20.4687 10.0849 20.2379 9.99982 19.9993 10C19.7607 10.0002 19.5301 10.0857 19.349 10.241L19.26 10.318C18.9016 10.6373 18.5505 10.9647 18.207 11.3C17.3334 12.1519 16.5058 13.0498 15.728 13.99C14.826 15.084 13.905 16.363 13.206 17.712C12.511 19.052 12 20.528 12 22C12 24.1217 12.8429 26.1566 14.3431 27.6568C15.8434 29.1571 17.8783 30 20 30C22.1217 30 24.1566 29.1571 25.6569 27.6568C27.1571 26.1566 28 24.1217 28 22C28 20.528 27.489 19.052 26.794 17.712C26.094 16.362 25.174 15.084 24.272 13.989C23.2543 12.7596 22.152 11.6027 20.973 10.527L20.651 10.241L20.65 10.24ZM14 22C14 20.972 14.364 19.823 14.981 18.632C15.595 17.45 16.424 16.291 17.271 15.261C18.1197 14.2353 19.0311 13.2631 20 12.35C20.9685 13.2625 21.8795 14.234 22.728 15.259C23.576 16.289 24.405 17.449 25.018 18.631C25.636 19.822 26 20.971 26 21.999C26 23.5903 25.3679 25.1164 24.2426 26.2416C23.1174 27.3669 21.5913 27.999 20 27.999C18.4087 27.999 16.8826 27.3669 15.7574 26.2416C14.6321 25.1164 14 23.5903 14 21.999V22Z" fill="#B06A36"/>
<path d="M16.36 22.0421C16.1058 22.1176 15.892 22.291 15.7656 22.524C15.6392 22.7571 15.6106 23.0309 15.686 23.2851C15.9001 24.0016 16.289 24.6536 16.8177 25.1824C17.3465 25.7111 17.9985 26.1001 18.715 26.3141C18.8412 26.3526 18.9738 26.3658 19.105 26.3529C19.2363 26.3399 19.3638 26.3011 19.48 26.2387C19.5963 26.1763 19.699 26.0915 19.7823 25.9892C19.8656 25.8869 19.9279 25.7691 19.9655 25.6427C20.0031 25.5162 20.0153 25.3836 20.0014 25.2524C19.9875 25.1212 19.9478 24.994 19.8845 24.8782C19.8213 24.7625 19.7357 24.6603 19.6329 24.5778C19.53 24.4952 19.4117 24.4338 19.285 24.3971C18.8873 24.2779 18.5255 24.0618 18.2319 23.7682C17.9383 23.4746 17.7222 23.1128 17.603 22.7151C17.5273 22.4611 17.3539 22.2475 17.1208 22.1214C16.8877 21.9952 16.6141 21.9667 16.36 22.0421Z" fill="#B06A36"/>
</svg>
