<svg width="40" height="40" viewBox="0 0 40 40" fill="none" xmlns="http://www.w3.org/2000/svg">
<circle cx="20" cy="20" r="20" fill="#B06A36" fill-opacity="0.2"/>
<path d="M20 8.33325C26.4435 8.33325 31.6667 13.5564 31.6667 19.9999C31.6667 26.4434 26.4435 31.6666 20 31.6666C18.0841 31.6696 16.1971 31.1987 14.5073 30.2958L8.33333 31.6666L9.70533 25.4949C8.8016 23.8045 8.33025 21.9167 8.33333 19.9999C8.33333 13.5564 13.5565 8.33325 20 8.33325ZM20 10.6666C17.5246 10.6666 15.1507 11.6499 13.4003 13.4003C11.65 15.1506 10.6667 17.5246 10.6667 19.9999C10.6667 21.5574 11.047 23.0543 11.7633 24.3936L12.1717 25.1566L11.4063 28.5936L14.8457 27.8306L15.6075 28.2378C16.9588 28.9599 18.4678 29.3363 20 29.3333C22.4753 29.3333 24.8493 28.3499 26.5997 26.5996C28.35 24.8492 29.3333 22.4753 29.3333 19.9999C29.3333 17.5246 28.35 15.1506 26.5997 13.4003C24.8493 11.6499 22.4753 10.6666 20 10.6666ZM20 14.1666C20.9283 14.1666 21.8185 14.5353 22.4749 15.1917C23.1312 15.8481 23.5 16.7383 23.5 17.6666V18.8333H24.6667V24.6666H15.3333V18.8333H16.5V17.6666C16.5 16.7383 16.8687 15.8481 17.5251 15.1917C18.1815 14.5353 19.0717 14.1666 20 14.1666ZM22.3333 21.1666H17.6667V22.3333H22.3333V21.1666ZM20 16.4999C19.356 16.4999 18.8333 17.0249 18.8333 17.6666V18.8333H21.1667V17.6666C21.1667 17.3572 21.0437 17.0604 20.825 16.8416C20.6062 16.6228 20.3094 16.4999 20 16.4999Z" fill="#B06A36"/>
</svg>
