<svg width="40" height="40" viewBox="0 0 40 40" fill="none" xmlns="http://www.w3.org/2000/svg">
<path d="M12.4167 18.8333L8.33334 16.4999V11.8333L12.4167 9.49992L16.5 11.8333V16.4999L12.4167 18.8333ZM12.4167 16.1499L14.1667 15.1583V13.1749L12.4167 12.1833L10.6667 13.1749V15.1583L12.4167 16.1499ZM25.25 19.7374V17.0249L29.3333 19.4166V27.5833L22.3333 31.6666L15.3333 27.5833V19.4166L19.4167 17.0249V19.7374L17.6667 20.7583V26.2416L22.3333 28.9541L27 26.2416V20.7583L25.25 19.7374ZM21.1667 22.3333V8.33325H31.6667L29.3333 11.8333L31.6667 15.3333H23.5V22.3333H21.1667Z" fill="#B06A36"/>
<circle cx="20" cy="20" r="20" fill="#B06A36" fill-opacity="0.2"/>
</svg>
