<svg width="40" height="40" viewBox="0 0 40 40" fill="none" xmlns="http://www.w3.org/2000/svg">
<path d="M6.25334 11.5418C6.24448 11.3779 6.20341 11.2173 6.13249 11.0692C6.06156 10.9212 5.96217 10.7885 5.83998 10.6789C5.7178 10.5692 5.57521 10.4847 5.42036 10.4302C5.26552 10.3756 5.10144 10.3521 4.93751 10.361C4.77358 10.3698 4.61299 10.4109 4.46493 10.4818C4.31687 10.5527 4.18423 10.6521 4.07457 10.7743C3.96492 10.8965 3.88041 11.0391 3.82587 11.1939C3.77132 11.3488 3.74781 11.5129 3.75668 11.6768L6.25334 11.5418ZM7.86334 5.15346C7.64445 5.39536 7.5288 5.71325 7.54109 6.03925C7.55338 6.36525 7.69263 6.67353 7.92912 6.89827C8.1656 7.123 8.48057 7.24638 8.80677 7.24206C9.13298 7.23773 9.44457 7.10605 9.67501 6.87513L7.86334 5.15346ZM17.7733 33.0201C17.9123 33.1097 18.0677 33.1708 18.2305 33.1999C18.3933 33.229 18.5602 33.2255 18.7216 33.1897C18.8831 33.1538 19.0358 33.0862 19.1709 32.9909C19.306 32.8956 19.4209 32.7745 19.5089 32.6345C19.5969 32.4945 19.6562 32.3384 19.6834 32.1753C19.7106 32.0122 19.7052 31.8453 19.6675 31.6843C19.6298 31.5233 19.5605 31.3714 19.4637 31.2373C19.3668 31.1033 19.2444 30.9898 19.1033 30.9035L17.7733 33.0201ZM25.1883 33.4301C24.8637 33.3623 24.5253 33.4262 24.2478 33.6078C23.9702 33.7894 23.7762 34.0738 23.7083 34.3985C23.6405 34.7231 23.7044 35.0615 23.886 35.339C24.0676 35.6166 24.352 35.8106 24.6767 35.8785L25.1883 33.4301ZM26.075 25.9068L26.8333 25.1068L25.02 23.3851L24.2617 24.1851L26.075 25.9068ZM29.3317 24.7701L32.515 26.6035L33.7633 24.4368L30.5783 22.6035L29.3317 24.7701ZM33.13 30.4035L30.7617 32.8951L32.575 34.6185L34.9417 32.1251L33.13 30.4035ZM13.9317 26.5985C7.47168 19.7968 6.38834 14.0585 6.25334 11.5418L3.75668 11.6768C3.92334 14.7601 5.23001 21.0668 12.12 28.3201L13.9317 26.5985ZM16.225 15.5368L16.7017 15.0335L14.89 13.3118L14.4117 13.8151L16.225 15.5368ZM17.0783 8.76679L14.9767 5.79513L12.935 7.23846L15.035 10.2101L17.0783 8.76679ZM15.3167 14.6751C15.0167 14.3861 14.7139 14.0999 14.4083 13.8168L14.405 13.8201L14.4 13.8251C14.3704 13.8557 14.3426 13.888 14.3167 13.9218C14.1533 14.138 14.024 14.3781 13.9333 14.6335C13.77 15.0918 13.6833 15.6985 13.7933 16.4551C14.01 17.9418 14.985 19.9401 17.53 22.6218L19.3433 20.8985C16.9633 18.3935 16.3767 16.8518 16.2667 16.0918C16.2133 15.7251 16.2667 15.5335 16.2883 15.4718L16.3017 15.4401C16.288 15.4621 16.2724 15.4827 16.255 15.5018C16.2452 15.5131 16.2352 15.5259 16.225 15.5368L15.3167 14.6751ZM17.53 22.6201C20.0683 25.2935 21.985 26.3435 23.4467 26.5818C24.1983 26.7035 24.8067 26.6051 25.2667 26.4235C25.5221 26.3236 25.7597 26.1828 25.97 26.0068L26.0283 25.9501L26.0517 25.9268C26.0556 25.9235 26.0595 25.9202 26.0633 25.9168L26.0683 25.9118L26.07 25.9085C26.07 25.9085 26.0733 25.9068 25.1667 25.0451C24.26 24.1851 24.2617 24.1835 24.2617 24.1818L24.265 24.1801L24.2683 24.1751L24.2783 24.1668C24.3035 24.1425 24.3297 24.1191 24.3567 24.0968C24.3717 24.0868 24.37 24.0901 24.3483 24.0985C24.315 24.1118 24.165 24.1651 23.8483 24.1135C23.1783 24.0035 21.7317 23.4135 19.3433 20.8985L17.53 22.6201ZM14.9767 5.79513C13.2867 3.40513 9.90668 3.00013 7.86334 5.15346L9.67501 6.87513C10.5467 5.95846 12.0817 6.03013 12.935 7.23846L14.9767 5.79513ZM30.7617 32.8951C30.2967 33.3851 29.8117 33.6485 29.3383 33.6951L29.5833 36.1818C30.8283 36.0601 31.8367 35.3968 32.575 34.6185L30.7617 32.8951ZM16.7017 15.0335C18.315 13.3351 18.4283 10.6785 17.0783 8.76679L15.0367 10.2101C15.74 11.2051 15.6317 12.5318 14.89 13.3118L16.7017 15.0335ZM32.515 26.6035C33.8833 27.3918 34.1517 29.3285 33.13 30.4035L34.9417 32.1251C37.1167 29.8351 36.4833 26.0035 33.7633 24.4368L32.515 26.6035ZM26.8333 25.1068C27.475 24.4301 28.4767 24.2785 29.3317 24.7701L30.5783 22.6035C28.7467 21.5501 26.4783 21.8518 25.02 23.3851L26.8333 25.1068ZM19.1033 30.9035C17.465 29.8735 15.72 28.4801 13.9317 26.5985L12.12 28.3201C14.0433 30.3451 15.9483 31.8735 17.7733 33.0201L19.1033 30.9035ZM29.3367 33.6951C27.9485 33.817 26.5498 33.7277 25.1883 33.4301L24.6767 35.8785C26.2874 36.2274 27.9419 36.3296 29.5833 36.1818L29.3367 33.6951Z" fill="#FFC63E"/>
</svg>
