<svg width="40" height="40" viewBox="0 0 40 40" fill="none" xmlns="http://www.w3.org/2000/svg">
<circle cx="20" cy="20" r="20" fill="#B06A36" fill-opacity="0.2"/>
<path d="M13.25 9.5C13.0511 9.5 12.8603 9.57902 12.7197 9.71967C12.579 9.86032 12.5 10.0511 12.5 10.25V21.5C12.5 22.2956 12.8161 23.0587 13.3787 23.6213C13.9413 24.1839 14.7044 24.5 15.5 24.5H17V27.5C17 28.2956 17.3161 29.0587 17.8787 29.6213C18.4413 30.1839 19.2044 30.5 20 30.5C20.7956 30.5 21.5587 30.1839 22.1213 29.6213C22.6839 29.0587 23 28.2956 23 27.5V24.5H24.5C25.2956 24.5 26.0587 24.1839 26.6213 23.6213C27.1839 23.0587 27.5 22.2956 27.5 21.5V10.25C27.5 10.0511 27.421 9.86032 27.2803 9.71967C27.1397 9.57902 26.9489 9.5 26.75 9.5H13.25ZM14 18.5V11H20V13.25C20 13.4489 20.079 13.6397 20.2197 13.7803C20.3603 13.921 20.5511 14 20.75 14C20.9489 14 21.1397 13.921 21.2803 13.7803C21.421 13.6397 21.5 13.4489 21.5 13.25V11H23V14.75C23 14.9489 23.079 15.1397 23.2197 15.2803C23.3603 15.421 23.5511 15.5 23.75 15.5C23.9489 15.5 24.1397 15.421 24.2803 15.2803C24.421 15.1397 24.5 14.9489 24.5 14.75V11H26V18.5H14ZM14 20H26V21.5C26 21.8978 25.842 22.2794 25.5607 22.5607C25.2794 22.842 24.8978 23 24.5 23H22.25C22.0511 23 21.8603 23.079 21.7197 23.2197C21.579 23.3603 21.5 23.5511 21.5 23.75V27.5C21.5 27.8978 21.342 28.2794 21.0607 28.5607C20.7794 28.842 20.3978 29 20 29C19.6022 29 19.2206 28.842 18.9393 28.5607C18.658 28.2794 18.5 27.8978 18.5 27.5V23.75C18.5 23.5511 18.421 23.3603 18.2803 23.2197C18.1397 23.079 17.9489 23 17.75 23H15.5C15.1022 23 14.7206 22.842 14.4393 22.5607C14.158 22.2794 14 21.8978 14 21.5V20Z" fill="#B06A36"/>
</svg>
