<svg width="40" height="40" viewBox="0 0 40 40" fill="none" xmlns="http://www.w3.org/2000/svg">
<g clip-path="url(#clip0_112_33)">
<path d="M29.3333 4.00016H36V36.0002C36 36.7074 35.719 37.3857 35.219 37.8858C34.7189 38.3859 34.0406 38.6668 33.3333 38.6668H6.66667C5.95942 38.6668 5.28115 38.3859 4.78105 37.8858C4.28095 37.3857 4 36.7074 4 36.0002V4.00016H10.6667M13.3333 22.6668L18.6667 28.0002L28 17.3335M12 1.3335H28V6.66683C28 7.37407 27.719 8.05235 27.219 8.55245C26.7189 9.05254 26.0406 9.3335 25.3333 9.3335H14.6667C13.9594 9.3335 13.2811 9.05254 12.781 8.55245C12.281 8.05235 12 7.37407 12 6.66683V1.3335Z" stroke="#B06A36" stroke-width="3"/>
</g>
<defs>
<clipPath id="clip0_112_33">
<rect width="40" height="40" fill="white"/>
</clipPath>
</defs>
</svg>
