<svg width="40" height="40" viewBox="0 0 40 40" fill="none" xmlns="http://www.w3.org/2000/svg">
<g clip-path="url(#clip0_111_114)">
<path d="M38.5143 21.4746C38.2322 25.0189 36.9387 28.4078 34.7873 31.2385C32.636 34.0693 29.7172 36.223 26.3779 37.4438C23.0385 38.6646 19.4189 38.9011 15.9491 38.1253C12.4792 37.3495 9.30503 35.5939 6.80357 33.0672C4.30212 30.5405 2.57855 27.3488 1.83764 23.8713C1.09674 20.3939 1.36964 16.7768 2.62392 13.4499C3.8782 10.123 6.06114 7.22604 8.91339 5.10324C11.7656 2.98045 15.1673 1.72102 18.7143 1.47461" stroke="#B06A36" stroke-width="3" stroke-linecap="round" stroke-linejoin="round"/>
<path d="M27.9714 23.1144C27.4555 24.4424 26.6166 25.6208 25.5308 26.5432C24.4449 27.4655 23.1463 28.1026 21.7523 28.3969C20.3584 28.6912 18.913 28.6333 17.547 28.2286C16.181 27.8239 14.9374 27.0851 13.9287 26.079C12.92 25.0729 12.178 23.8312 11.7698 22.4663C11.3616 21.1013 11.3 19.6561 11.5907 18.2614C11.8814 16.8667 12.5152 15.5664 13.4347 14.4782C14.3542 13.3899 15.5305 12.5481 16.8571 12.0287M20 20.0001L27.1428 12.8573M27.1428 12.8573L32.8571 14.2859L38.5714 8.57157L32.8571 7.143L31.4286 1.42871L25.7143 7.143L27.1428 12.8573Z" stroke="#B06A36" stroke-width="3" stroke-linecap="round" stroke-linejoin="round"/>
</g>
<defs>
<clipPath id="clip0_111_114">
<rect width="40" height="40" fill="white"/>
</clipPath>
</defs>
</svg>
