<svg width="40" height="40" viewBox="0 0 40 40" fill="none" xmlns="http://www.w3.org/2000/svg">
<g clip-path="url(#clip0_111_129)">
<path d="M24.0171 22.7718C22.9143 24.0289 21.5714 25.0575 20.06 25.8032V30.0889C20.06 30.4678 19.9095 30.8312 19.6416 31.0991C19.3737 31.367 19.0103 31.5175 18.6314 31.5175H10.06C9.68111 31.5175 9.31775 31.367 9.04984 31.0991C8.78193 30.8312 8.63142 30.4678 8.63142 30.0889V25.8032C5.62099 24.3006 3.31954 21.6777 2.22098 18.4974C1.12241 15.3172 1.31427 11.8331 2.75537 8.79268C4.19648 5.75229 6.772 3.39796 9.92922 2.23493C13.0864 1.07189 16.5738 1.19283 19.6428 2.57178M8.63142 38.5718H20.06" stroke="#B06A36" stroke-width="3" stroke-linecap="round" stroke-linejoin="round"/>
<path d="M21.1286 11.2402C20.1257 11.0659 20.1257 9.62589 21.1286 9.4516C22.9042 9.14256 24.5476 8.31173 25.8493 7.06504C27.1509 5.81836 28.0518 4.21229 28.4371 2.4516L28.4971 2.1716C28.7143 1.18017 30.1257 1.17446 30.3514 2.16303L30.4257 2.48589C30.8258 4.23861 31.7349 5.83404 33.0388 7.07181C34.3426 8.30959 35.9831 9.13453 37.7543 9.44303C38.7628 9.62017 38.7628 11.0659 37.7543 11.243C35.9836 11.552 34.3438 12.3772 33.0404 13.615C31.7371 14.8527 30.8285 16.4478 30.4286 18.2002L30.3543 18.523C30.1286 19.5116 28.7171 19.5059 28.5 18.5145L28.4428 18.2373C28.0572 16.4758 27.1554 14.8692 25.8527 13.6225C24.5499 12.3757 22.9053 11.5482 21.1286 11.2402Z" stroke="#B06A36" stroke-width="2" stroke-linecap="round" stroke-linejoin="round"/>
</g>
<defs>
<clipPath id="clip0_111_129">
<rect width="40" height="40" fill="white"/>
</clipPath>
</defs>
</svg>
