<svg width="40" height="40" viewBox="0 0 40 40" fill="none" xmlns="http://www.w3.org/2000/svg">
<circle cx="20" cy="20" r="20" fill="#B06A36" fill-opacity="0.2"/>
<path d="M23 10H17C16.4477 10 16 10.4477 16 11V13C16 13.5523 16.4477 14 17 14H23C23.5523 14 24 13.5523 24 13V11C24 10.4477 23.5523 10 23 10Z" stroke="#B06A36" stroke-width="2" stroke-linecap="round" stroke-linejoin="round"/>
<path d="M18.4 20.6001C18.7978 20.2023 19.3374 19.9788 19.9 19.9788C20.4626 19.9788 21.0022 20.2023 21.4 20.6001C21.7978 20.9979 22.0213 21.5375 22.0213 22.1001C22.0213 22.6627 21.7978 23.2023 21.4 23.6001L16 29.0001L12 30.0001L13 26.0001L18.4 20.6001Z" stroke="#B06A36" stroke-width="2" stroke-linecap="round" stroke-linejoin="round"/>
<path d="M24 12H26C26.5304 12 27.0391 12.2107 27.4142 12.5858C27.7893 12.9609 28 13.4696 28 14V28C28 28.5304 27.7893 29.0391 27.4142 29.4142C27.0391 29.7893 26.5304 30 26 30H20.5M12 21.5V14C12 13.4696 12.2107 12.9609 12.5858 12.5858C12.9609 12.2107 13.4696 12 14 12H16" stroke="#B06A36" stroke-width="2" stroke-linecap="round" stroke-linejoin="round"/>
</svg>
