<svg width="40" height="40" viewBox="0 0 40 40" fill="none" xmlns="http://www.w3.org/2000/svg">
<g clip-path="url(#clip0_111_124)">
<path d="M24.502 37.764C24.6397 37.8177 24.7638 37.8446 24.8742 37.8446C24.9846 37.8446 25.1086 37.8177 25.2463 37.764L37.7565 33.963C37.7135 33.3182 37.5177 32.8537 37.1693 32.5694C36.8208 32.2852 36.4265 32.1431 35.9862 32.1431H25.7797C24.8706 32.1431 24.046 32.1077 23.3061 32.037C22.5676 31.9663 21.8111 31.7973 21.0368 31.5301L17.35 30.3592C17.056 30.2645 16.8445 30.0743 16.7154 29.7887C16.5864 29.503 16.5706 29.2202 16.6681 28.9402C16.7642 28.6602 16.9485 28.4552 17.2209 28.3251C17.4934 28.195 17.778 28.1788 18.0749 28.2763L21.4089 29.4663C22.1001 29.6982 22.8659 29.8466 23.7062 29.9117C24.5465 29.9767 25.5854 30.0135 26.823 30.022H27.3822C27.3822 29.3616 27.2582 28.8271 27.0101 28.4184C26.7635 28.0112 26.41 27.727 25.9497 27.5658L13.5728 23.0881C13.4911 23.0598 13.4158 23.0386 13.347 23.0245C13.2781 23.0118 13.2021 23.0054 13.119 23.0054H8.60185V33.2036L24.502 37.764ZM23.9514 39.8596L8.60185 35.4308C8.39822 36.2679 7.96444 36.9353 7.3005 37.4331C6.63799 37.9309 5.91453 38.1797 5.13014 38.1797H3.47387C2.51882 38.1797 1.70144 37.8439 1.02173 37.1722C0.340575 36.5019 0 35.6959 0 34.7542V24.312C0 23.3688 0.339858 22.5621 1.01957 21.8918C1.70072 21.2201 2.51882 20.8843 3.47387 20.8843H13.0738C13.2745 20.8843 13.4803 20.9069 13.6911 20.9522C13.9034 20.9974 14.1005 21.0498 14.2826 21.1091L26.7154 25.5995C27.484 25.888 28.1458 26.4062 28.7008 27.1543C29.2572 27.9023 29.5354 28.8582 29.5354 30.022H35.9884C37.2833 30.022 38.2756 30.4215 38.9654 31.2204C39.6551 32.0208 40 33.0354 40 34.2642C40 34.6884 39.8839 35.0469 39.6515 35.3396C39.4178 35.6309 39.0772 35.8501 38.6298 35.9971L25.9733 39.849C25.6622 39.9353 25.3323 39.9848 24.9839 39.9975C24.6368 40.0116 24.2934 39.9657 23.9535 39.8596M2.14885 34.7542C2.14885 35.1345 2.27289 35.447 2.52097 35.6917C2.76905 35.9363 3.08597 36.0586 3.47171 36.0586H5.12799C5.51373 36.0586 5.83064 35.9568 6.07873 35.7532C6.32681 35.5496 6.45085 35.2166 6.45085 34.7542V23.0054H3.47171C3.08597 23.0054 2.76905 23.1277 2.52097 23.3724C2.27289 23.617 2.14885 23.9302 2.14885 24.312V34.7542ZM28.5803 18.5766C28.153 18.5766 27.7336 18.4995 27.322 18.3454C26.909 18.1912 26.5319 17.9607 26.1906 17.6539L20.4818 12.2536C19.5354 11.3556 18.746 10.3517 18.1136 9.24161C17.4812 8.13016 17.165 6.92113 17.165 5.61454C17.165 4.05483 17.7178 2.72914 18.8234 1.63749C19.9305 0.545829 21.2748 0 22.8565 0C24.031 0 25.0993 0.313215 26.0615 0.939646C27.0237 1.56749 27.8633 2.32826 28.5803 3.22194C29.2973 2.32826 30.137 1.56749 31.0992 0.939646C32.0628 0.313215 33.1311 0 34.3042 0C35.8859 0 37.2302 0.545829 38.3373 1.63749C39.4443 2.72914 39.9979 4.05412 39.9979 5.61242C39.9979 6.92043 39.6838 8.12945 39.0557 9.23949C38.4262 10.3509 37.6382 11.3549 36.6918 12.2514L30.9701 17.6539C30.6302 17.9607 30.2538 18.1912 29.8408 18.3454C29.4278 18.4995 29.0077 18.5766 28.5803 18.5766ZM29.4902 16.1288L35.0226 10.9024C35.7855 10.177 36.4473 9.37312 37.008 8.49075C37.5672 7.60837 37.8469 6.64893 37.8469 5.61242C37.8469 4.6452 37.5027 3.82151 36.8144 3.14134C36.1217 2.46118 35.285 2.1211 34.3042 2.1211C33.4438 2.1211 32.6723 2.37492 31.9897 2.88257C31.3071 3.3888 30.6941 3.98625 30.1506 4.67489L29.7914 5.10336C29.4802 5.4894 29.0787 5.68242 28.5868 5.68242C28.0935 5.68242 27.687 5.4894 27.3672 5.10336L27.008 4.67489C26.463 3.98625 25.85 3.3888 25.1689 2.88257C24.4863 2.37492 23.7148 2.1211 22.8544 2.1211C21.8721 2.1211 21.0361 2.46047 20.3463 3.13922C19.658 3.8208 19.3138 4.6452 19.3138 5.61242C19.3138 6.64893 19.5935 7.60837 20.1527 8.49075C20.712 9.37312 21.3738 10.177 22.1381 10.9024L27.6683 16.1288C27.9164 16.3734 28.2197 16.4958 28.5782 16.4958C28.9367 16.4958 29.2421 16.3734 29.4902 16.1288Z" fill="#B06A36"/>
</g>
<defs>
<clipPath id="clip0_111_124">
<rect width="40" height="40" fill="white"/>
</clipPath>
</defs>
</svg>
